<?xml version="1.0" encoding="UTF-8" standalone="no"?>
<!-- Created with Inkscape (http://www.inkscape.org/) -->

<svg
   width="210mm"
   height="297mm"
   viewBox="0 0 210 297"
   version="1.1"
   id="svg1"
   inkscape:version="1.3 (0e150ed6c4, 2023-07-21)"
   sodipodi:docname="icons.svg"
   xmlns:inkscape="http://www.inkscape.org/namespaces/inkscape"
   xmlns:sodipodi="http://sodipodi.sourceforge.net/DTD/sodipodi-0.dtd"
   xmlns="http://www.w3.org/2000/svg"
   xmlns:svg="http://www.w3.org/2000/svg">
  <sodipodi:namedview
     id="namedview1"
     pagecolor="#ffffff"
     bordercolor="#000000"
     borderopacity="0.25"
     inkscape:showpageshadow="2"
     inkscape:pageopacity="0.0"
     inkscape:pagecheckerboard="0"
     inkscape:deskcolor="#d1d1d1"
     inkscape:document-units="mm"
     inkscape:zoom="0.70710678"
     inkscape:cx="176.06959"
     inkscape:cy="910.04643"
     inkscape:window-width="1920"
     inkscape:window-height="1009"
     inkscape:window-x="-8"
     inkscape:window-y="-8"
     inkscape:window-maximized="1"
     inkscape:current-layer="layer1" />
  <defs
     id="defs1">
    <inkscape:path-effect
       effect="fillet_chamfer"
       id="path-effect7"
       is_visible="true"
       lpeversion="1"
       nodesatellites_param="F,0,0,1,0,0,0,1 @ F,0,0,1,0,0,0,1 @ F,0,0,1,0,0,0,1 @ F,0,0,1,0,0,0,1 | F,0,0,1,0,0,0,1 @ F,0,0,1,0,0,0,1 @ F,0,0,1,0,0,0,1 @ F,0,0,1,0,0,0,1 @ F,0,0,1,0,0,0,1 @ F,0,0,1,0,0,0,1 @ F,0,0,1,0,0,0,1 @ F,0,0,1,0,0,0,1 @ F,0,0,1,0,0,0,1 @ F,0,0,1,0,0,0,1 @ F,0,0,1,0,0,0,1 @ F,0,0,1,0,0,0,1 @ F,0,0,1,0,0,0,1 @ F,0,0,1,0,0,0,1 @ F,0,0,1,0,0,0,1 @ F,0,0,1,0,0,0,1 @ F,0,0,1,0,0,0,1 @ F,0,0,1,0,0,0,1 @ F,0,0,1,0,0,0,1 @ F,0,0,1,0,0,0,1 @ F,0,0,1,0,0,0,1"
       radius="0"
       unit="px"
       method="auto"
       mode="F"
       chamfer_steps="1"
       flexible="false"
       use_knot_distance="true"
       apply_no_radius="true"
       apply_with_radius="true"
       only_selected="false"
       hide_knots="false" />
    <inkscape:path-effect
       effect="fillet_chamfer"
       id="path-effect6"
       is_visible="true"
       lpeversion="1"
       nodesatellites_param="F,0,1,1,0,5.0688187,0,1 @ F,0,1,1,0,5.0688187,0,1 @ F,0,0,1,0,5.0688187,0,1 @ F,0,1,1,0,5.0688187,0,1"
       radius="0"
       unit="px"
       method="auto"
       mode="F"
       chamfer_steps="1"
       flexible="false"
       use_knot_distance="true"
       apply_no_radius="true"
       apply_with_radius="true"
       only_selected="false"
       hide_knots="false" />
    <inkscape:path-effect
       effect="fillet_chamfer"
       id="path-effect5"
       is_visible="true"
       lpeversion="1"
       nodesatellites_param="F,0,1,1,0,3.7356629,0,1 @ F,0,0,1,0,0,0,1 @ F,0,1,1,0,3.7356629,0,1 @ F,0,0,1,0,0,0,1 @ F,0,1,1,0,3.7356629,0,1 @ F,0,1,1,0,3.7356629,0,1 @ F,0,0,1,0,3.7356629,0,1 @ F,0,1,1,0,3.7356629,0,1 @ F,0,0,1,0,0,0,1 @ F,0,1,1,0,3.7356629,0,1 @ F,0,0,1,0,0,0,1"
       radius="0"
       unit="px"
       method="auto"
       mode="F"
       chamfer_steps="1"
       flexible="false"
       use_knot_distance="true"
       apply_no_radius="true"
       apply_with_radius="true"
       only_selected="false"
       hide_knots="false" />
    <inkscape:path-effect
       effect="fillet_chamfer"
       id="path-effect4"
       is_visible="true"
       lpeversion="1"
       nodesatellites_param="F,0,0,1,0,0,0,1 @ F,0,0,1,0,0,0,1 @ F,0,0,1,0,0,0,1 @ F,0,0,1,0,0,0,1 @ F,0,0,1,0,0,0,1 @ F,0,0,1,0,0,0,1 @ F,0,0,1,0,0,0,1 @ F,0,0,1,0,0,0,1 @ F,0,0,1,0,0,0,1 @ F,0,0,1,0,0,0,1 @ F,0,0,1,0,0,0,1"
       radius="0"
       unit="px"
       method="auto"
       mode="F"
       chamfer_steps="1"
       flexible="false"
       use_knot_distance="true"
       apply_no_radius="true"
       apply_with_radius="true"
       only_selected="false"
       hide_knots="false" />
    <inkscape:path-effect
       effect="fillet_chamfer"
       id="path-effect3"
       is_visible="true"
       lpeversion="1"
       nodesatellites_param="F,0,0,1,0,0,0,1 @ F,0,0,1,0,0,0,1 @ F,0,0,1,0,0,0,1 @ F,0,0,1,0,0,0,1"
       radius="0"
       unit="px"
       method="auto"
       mode="F"
       chamfer_steps="1"
       flexible="false"
       use_knot_distance="true"
       apply_no_radius="true"
       apply_with_radius="true"
       only_selected="false"
       hide_knots="false" />
    <inkscape:path-effect
       effect="fillet_chamfer"
       id="path-effect2"
       is_visible="true"
       lpeversion="1"
       nodesatellites_param="F,0,1,1,0,7.3209605,0,1 @ F,0,0,1,0,0,0,1 @ F,0,1,1,0,7.3209605,0,1 @ F,0,0,1,0,0,0,1 @ F,0,0,1,0,7.3209605,0,1 @ F,0,0,1,0,0,0,1"
       radius="0"
       unit="px"
       method="auto"
       mode="F"
       chamfer_steps="1"
       flexible="false"
       use_knot_distance="true"
       apply_no_radius="true"
       apply_with_radius="true"
       only_selected="false"
       hide_knots="false" />
    <inkscape:path-effect
       effect="fillet_chamfer"
       id="path-effect5-0"
       is_visible="true"
       lpeversion="1"
       nodesatellites_param="F,0,1,1,0,3.7356629,0,1 @ F,0,0,1,0,0,0,1 @ F,0,1,1,0,3.7356629,0,1 @ F,0,0,1,0,0,0,1 @ F,0,1,1,0,3.7356629,0,1 @ F,0,1,1,0,3.7356629,0,1 @ F,0,0,1,0,3.7356629,0,1 @ F,0,1,1,0,3.7356629,0,1 @ F,0,0,1,0,0,0,1 @ F,0,1,1,0,3.7356629,0,1 @ F,0,0,1,0,0,0,1"
       radius="0"
       unit="px"
       method="auto"
       mode="F"
       chamfer_steps="1"
       flexible="false"
       use_knot_distance="true"
       apply_no_radius="true"
       apply_with_radius="true"
       only_selected="false"
       hide_knots="false" />
    <inkscape:path-effect
       effect="fillet_chamfer"
       id="path-effect5-0-9"
       is_visible="true"
       lpeversion="1"
       nodesatellites_param="F,0,1,1,0,3.7356629,0,1 @ F,0,0,1,0,0,0,1 @ F,0,1,1,0,3.7356629,0,1 @ F,0,0,1,0,0,0,1 @ F,0,1,1,0,3.7356629,0,1 @ F,0,1,1,0,3.7356629,0,1 @ F,0,0,1,0,3.7356629,0,1 @ F,0,1,1,0,3.7356629,0,1 @ F,0,0,1,0,0,0,1 @ F,0,1,1,0,3.7356629,0,1 @ F,0,0,1,0,0,0,1"
       radius="0"
       unit="px"
       method="auto"
       mode="F"
       chamfer_steps="1"
       flexible="false"
       use_knot_distance="true"
       apply_no_radius="true"
       apply_with_radius="true"
       only_selected="false"
       hide_knots="false" />
    <inkscape:path-effect
       effect="fillet_chamfer"
       id="path-effect5-07"
       is_visible="true"
       lpeversion="1"
       nodesatellites_param="F,0,1,1,0,3.7356629,0,1 @ F,0,0,1,0,0,0,1 @ F,0,1,1,0,3.7356629,0,1 @ F,0,0,1,0,0,0,1 @ F,0,1,1,0,3.7356629,0,1 @ F,0,1,1,0,3.7356629,0,1 @ F,0,0,1,0,3.7356629,0,1 @ F,0,1,1,0,3.7356629,0,1 @ F,0,0,1,0,0,0,1 @ F,0,1,1,0,3.7356629,0,1 @ F,0,0,1,0,0,0,1"
       radius="0"
       unit="px"
       method="auto"
       mode="F"
       chamfer_steps="1"
       flexible="false"
       use_knot_distance="true"
       apply_no_radius="true"
       apply_with_radius="true"
       only_selected="false"
       hide_knots="false" />
    <inkscape:path-effect
       effect="fillet_chamfer"
       id="path-effect5-0-7"
       is_visible="true"
       lpeversion="1"
       nodesatellites_param="F,0,1,1,0,3.7356629,0,1 @ F,0,0,1,0,0,0,1 @ F,0,1,1,0,3.7356629,0,1 @ F,0,0,1,0,0,0,1 @ F,0,1,1,0,3.7356629,0,1 @ F,0,1,1,0,3.7356629,0,1 @ F,0,0,1,0,0,0,1 @ F,0,1,1,0,3.7356629,0,1 @ F,0,0,1,0,0,0,1"
       radius="0"
       unit="px"
       method="auto"
       mode="F"
       chamfer_steps="1"
       flexible="false"
       use_knot_distance="true"
       apply_no_radius="true"
       apply_with_radius="true"
       only_selected="false"
       hide_knots="false" />
  </defs>
  <g
     inkscape:label="Layer 1"
     inkscape:groupmode="layer"
     id="layer1">
    <path
       id="path1"
       style="font-variation-settings:'wdth' 75, 'wght' 600;fill:#6aab73;stroke-width:2.625;stroke-linejoin:round"
       inkscape:transform-center-x="-8.3459208"
       transform="matrix(0.88517781,0,0,0.88517781,105.40407,51.006232)"
       d="M 70.097209,82.933537 48.151773,95.603742 26.206336,108.27394 a 4.2267596,4.2267596 30.000003 0 1 -6.340138,-3.66048 l -2e-6,-25.340405 2e-6,-25.340408 a 4.2267589,4.2267589 150 0 1 6.340138,-3.66048 l 21.945438,12.670204 21.945435,12.670204 a 4.226759,4.226759 90 0 1 0,7.320962 z"
       inkscape:path-effect="#path-effect2"
       inkscape:original-d="m 76.437347,79.273056 -28.285574,16.330686 -28.285575,16.330678 -2e-6,-32.661365 2e-6,-32.661368 28.285576,16.330684 z" />
    <rect
       style="font-variation-settings:'wdth' 75, 'wght' 600;fill:#d4716a;fill-opacity:1;stroke-width:2.65766;stroke-linejoin:round"
       id="rect4-7"
       width="46.334106"
       height="46.334106"
       x="-85.828529"
       y="-143.54704"
       transform="scale(-1)"
       ry="3.7462289"
       rx="3.7462289" />
    <path
       id="path4"
       style="font-variation-settings:'wdth' 75, 'wght' 600;fill:#000000;fill-opacity:1;stroke-width:2.625;stroke-linejoin:round"
       inkscape:transform-center-y="-7.3064167"
       d="m 82.963363,96.284028 -10.787237,18.684392 -10.787204,18.6839 a 1.4937876,1.4937876 51.795203 0 0 1.715657,2.17984 l 9.071547,-2.67157 3.840355,-1.13104 a 2.7940999,2.7940999 36.794758 0 1 3.583481,2.68027 v 5.89531 a 3.7356629,3.7356629 45 0 0 3.735663,3.73566 h 2.99057 a 3.7356629,3.7356629 135 0 0 3.735663,-3.73566 v -5.89531 a 2.7941545,2.7941545 143.2047 0 1 3.5835,-2.68034 l 3.84085,1.13111 9.071552,2.67157 a 1.4937876,1.4937876 128.2048 0 0 1.71565,-2.17984 L 97.486208,114.96842 86.698973,96.284028 a 2.1567454,2.1567454 1.9604494e-6 0 0 -3.73561,0 z"
       inkscape:export-filename="path1.png"
       inkscape:export-xdpi="8.5301971"
       inkscape:export-ydpi="8.5301971"
       inkscape:path-effect="#path-effect5"
       inkscape:original-d="m 84.831168,93.048834 -12.655042,21.919586 -12.655042,21.91908 12.655042,-3.72691 7.423836,-2.18643 v 13.36663 h 10.461896 v -13.36663 l 7.42435,2.18643 12.655042,3.72691 -12.655042,-21.91908 z"
       transform="translate(-22.496036,59.977967)" />
    <path
       id="path4-0"
       style="font-variation-settings:'wdth' 75, 'wght' 600;fill:#3486eb;fill-opacity:1;stroke-width:2.625;stroke-linejoin:round"
       inkscape:transform-center-y="-7.3064167"
       d="m 82.963363,96.284028 -10.787237,18.684392 -10.787204,18.6839 a 1.4937876,1.4937876 51.795203 0 0 1.715657,2.17984 l 9.071547,-2.67157 3.840355,-1.13104 a 2.7940999,2.7940999 36.794758 0 1 3.583481,2.68027 v 5.89531 a 3.7356629,3.7356629 45 0 0 3.735663,3.73566 h 2.99057 a 3.7356629,3.7356629 135 0 0 3.735663,-3.73566 v -5.89531 a 2.7941545,2.7941545 143.2047 0 1 3.5835,-2.68034 l 3.84085,1.13111 9.071552,2.67157 a 1.4937876,1.4937876 128.2048 0 0 1.71565,-2.17984 L 97.486208,114.96842 86.698973,96.284028 a 2.1567454,2.1567454 1.9604494e-6 0 0 -3.73561,0 z"
       inkscape:export-filename="arrow_button_selected.png"
       inkscape:export-xdpi="9.1319065"
       inkscape:export-ydpi="9.1319065"
       inkscape:path-effect="#path-effect5-07"
       inkscape:original-d="m 84.831168,93.048834 -12.655042,21.919586 -12.655042,21.91908 12.655042,-3.72691 7.423836,-2.18643 v 13.36663 h 10.461896 v -13.36663 l 7.42435,2.18643 12.655042,3.72691 -12.655042,-21.91908 z"
       transform="translate(87.242459,121.48811)" />
    <path
       id="path4-3"
       style="font-variation-settings:'wdth' 75, 'wght' 600;fill:#c8c8c8;fill-opacity:1;stroke-width:2.625;stroke-linejoin:round"
       inkscape:transform-center-y="-7.3064167"
       d="m 82.963363,96.284028 -10.787237,18.684392 -10.787204,18.6839 a 1.4937876,1.4937876 51.795203 0 0 1.715657,2.17984 l 9.071547,-2.67157 3.840355,-1.13104 a 2.7940999,2.7940999 36.794758 0 1 3.583481,2.68027 v 5.89531 a 3.7356629,3.7356629 45 0 0 3.735663,3.73566 h 2.99057 a 3.7356629,3.7356629 135 0 0 3.735663,-3.73566 v -5.89531 a 2.7941545,2.7941545 143.2047 0 1 3.5835,-2.68034 l 3.84085,1.13111 9.071552,2.67157 a 1.4937876,1.4937876 128.2048 0 0 1.71565,-2.17984 L 97.486208,114.96842 86.698973,96.284028 a 2.1567454,2.1567454 1.9604494e-6 0 0 -3.73561,0 z"
       inkscape:export-filename="arrow_button.png"
       inkscape:export-xdpi="9.1319065"
       inkscape:export-ydpi="9.1319065"
       inkscape:path-effect="#path-effect5-0"
       inkscape:original-d="m 84.831168,93.048834 -12.655042,21.919586 -12.655042,21.91908 12.655042,-3.72691 7.423836,-2.18643 v 13.36663 h 10.461896 v -13.36663 l 7.42435,2.18643 12.655042,3.72691 -12.655042,-21.91908 z"
       transform="translate(32.473709,59.575611)" />
    <path
       id="path4-3-5"
       style="font-variation-settings:'wdth' 75, 'wght' 600;fill:#6e6e6e;fill-opacity:1;stroke-width:2.625;stroke-linejoin:round"
       inkscape:transform-center-y="-7.3064167"
       d="m 82.963363,96.284028 -10.787237,18.684392 -10.787204,18.6839 a 1.4937876,1.4937876 51.795203 0 0 1.715657,2.17984 l 9.071547,-2.67157 3.840355,-1.13104 a 2.7940999,2.7940999 36.794758 0 1 3.583481,2.68027 v 5.89531 a 3.7356629,3.7356629 45 0 0 3.735663,3.73566 h 2.99057 a 3.7356629,3.7356629 135 0 0 3.735663,-3.73566 v -5.89531 a 2.7941545,2.7941545 143.2047 0 1 3.5835,-2.68034 l 3.84085,1.13111 9.071552,2.67157 a 1.4937876,1.4937876 128.2048 0 0 1.71565,-2.17984 L 97.486208,114.96842 86.698973,96.284028 a 2.1567454,2.1567454 1.9604494e-6 0 0 -3.73561,0 z"
       inkscape:export-filename="arrow_button_disabled.png"
       inkscape:export-xdpi="9.1319065"
       inkscape:export-ydpi="9.1319065"
       inkscape:path-effect="#path-effect5-0-9"
       inkscape:original-d="m 84.831168,93.048834 -12.655042,21.919586 -12.655042,21.91908 12.655042,-3.72691 7.423836,-2.18643 v 13.36663 h 10.461896 v -13.36663 l 7.42435,2.18643 12.655042,3.72691 -12.655042,-21.91908 z"
       transform="translate(87.242459,60.104778)" />
    <path
       id="path5"
       style="font-variation-settings:'wdth' 75, 'wght' 600;fill:#c8c8c8;fill-opacity:1;stroke-width:2.625;stroke-linejoin:round"
       inkscape:transform-center-y="8.7902869"
       d="m 138.96352,192.60902 -19.87283,-34.42097 a 2.9264664,2.9264664 9.9471122e-7 0 0 -5.0688,0 l -19.872834,34.42097 a 1.4355869,1.4355869 45.812995 0 0 1.92548,1.98091 l 16.021874,-8.65355 a 9.3848135,9.3848135 9.6053102e-7 0 1 8.91976,0 l 16.02187,8.65355 a 1.4355869,1.4355869 134.18701 0 0 1.92548,-1.98091 z"
       transform="matrix(-1,0,0,-1.2208677,234.60918,461.27963)"
       inkscape:path-effect="#path-effect6"
       inkscape:original-d="M 141.49792,196.99875 116.55629,153.79832 91.614658,196.99875 116.55629,183.52756 Z"
       inkscape:export-filename="arrow2.png"
       inkscape:export-xdpi="6.7434926"
       inkscape:export-ydpi="6.7434926" />
    <path
       id="path2"
       style="font-variation-settings:'wdth' 75, 'wght' 600;fill:#d4716a;fill-opacity:1;stroke-width:2.625;stroke-linejoin:round"
       d="m 59.266667,219.86875 c -14.174157,0 -25.664582,11.49042 -25.664584,25.66458 -4e-6,14.17416 11.490423,25.66459 25.664584,25.66459 14.174161,0 25.664587,-11.49043 25.664583,-25.66459 -2e-6,-14.17416 -11.490426,-25.66458 -25.664583,-25.66458 z m 7.536491,11.69644 c 0.938394,-5.3e-4 1.876769,0.35872 2.596224,1.07746 l 2.744535,2.74195 c 1.438908,1.43748 1.440378,3.75334 0.0031,5.19245 l -4.945434,4.95112 4.952669,4.94646 c 1.439111,1.43728 1.440581,3.75251 0.0031,5.19142 l -2.741952,2.74453 c -1.43748,1.43891 -3.75282,1.44038 -5.191931,0.003 l -4.951636,-4.94543 -4.946468,4.95267 c -1.437276,1.43911 -3.752506,1.44058 -5.191414,0.003 l -2.744535,-2.74195 c -1.438909,-1.43748 -1.440378,-3.75334 -0.0031,-5.19245 l 4.945434,-4.95164 -4.952669,-4.94595 c -1.439111,-1.43728 -1.44058,-3.7525 -0.0031,-5.19141 l 2.741951,-2.74454 c 1.43748,-1.43891 3.753337,-1.44038 5.192448,-0.003 l 4.951119,4.94544 4.946468,-4.95267 c 0.718638,-0.71956 1.656795,-1.08002 2.595191,-1.08056 z"
       inkscape:path-effect="#path-effect7"
       inkscape:original-d="M 59.266667 219.86875 A 25.664583 25.664583 0 0 0 33.602083 245.53333 A 25.664583 25.664583 0 0 0 59.266667 271.19792 A 25.664583 25.664583 0 0 0 84.93125 245.53333 A 25.664583 25.664583 0 0 0 59.266667 219.86875 z M 66.803158 231.56519 C 67.741552 231.56466 68.679927 231.92391 69.399382 232.64265 L 72.143917 235.3846 C 73.582825 236.82208 73.584295 239.13794 72.147017 240.57705 L 67.201583 245.52817 L 72.154252 250.47463 C 73.593363 251.91191 73.594833 254.22714 72.157353 255.66605 L 69.415401 258.41058 C 67.977921 259.84949 65.662581 259.85096 64.22347 258.41368 L 59.271834 253.46825 L 54.325366 258.42092 C 52.88809 259.86003 50.57286 259.8615 49.133952 258.42402 L 46.389417 255.68207 C 44.950508 254.24459 44.949039 251.92873 46.386316 250.48962 L 51.33175 245.53798 L 46.379081 240.59203 C 44.93997 239.15475 44.938501 236.83953 46.375981 235.40062 L 49.117932 232.65608 C 50.555412 231.21717 52.871269 231.2157 54.31038 232.65298 L 59.261499 237.59842 L 64.207967 232.64575 C 64.926605 231.92619 65.864762 231.56573 66.803158 231.56519 z "
       inkscape:export-filename="error.png"
       inkscape:export-xdpi="7.4226804"
       inkscape:export-ydpi="7.4226804" />
  </g>
</svg>
